<svg width="15" height="20" viewBox="0 0 15 20" fill="none" xmlns="http://www.w3.org/2000/svg">
<g id="icon-safe">
<path d="M7.7317 0.00393275C8.1179 0.294956 8.44617 0.656769 8.84009 0.939926C9.81717 1.64782 10.8908 2.10009 12.0764 2.27706C12.8141 2.38718 13.5594 2.35178 14.3009 2.35571C14.7875 2.35965 15 2.57202 15 3.07147C15 5.34853 14.9961 7.62559 15 9.90659C15.0038 11.3814 14.7296 12.7932 14.0731 14.1186C13.5981 15.0742 12.9686 15.9158 12.2193 16.6709C11.4315 17.4614 10.5509 18.1378 9.62407 18.7435C9.02546 19.1328 8.43844 19.5379 7.82439 19.8997C7.60039 20.0295 7.39571 20.0373 7.17943 19.8997C5.66553 18.948 4.14005 18.008 2.85401 16.7338C1.3517 15.2512 0.382337 13.4893 0.0926876 11.3656C0.0270338 10.8858 0 10.406 0 9.92232C0.00386199 7.63739 0 5.35247 0 3.06754C0 2.56808 0.212409 2.35571 0.69902 2.35178C1.29377 2.34785 1.89237 2.36751 2.48712 2.32032C3.54917 2.23773 4.5417 1.91918 5.46857 1.38826C6.02856 1.06577 6.53834 0.6725 7.00178 0.220234C7.08288 0.141579 7.17943 0.0747222 7.26826 0C7.42274 0.00393275 7.57722 0.00393275 7.7317 0.00393275ZM7.47681 15.2748C10.3192 15.3023 12.6712 12.9269 12.6905 10.0088C12.7137 7.11827 10.4003 4.74289 7.53087 4.70356C4.69231 4.66424 2.3365 7.03568 2.30561 9.96165C2.27857 12.8522 4.60735 15.2473 7.47681 15.2748Z" fill="white"/>
<path d="M11.5396 9.99311C11.5396 12.2505 9.72448 14.0989 7.50384 14.1028C5.27934 14.1068 3.45262 12.2426 3.4642 9.98131C3.47579 7.71998 5.29092 5.87552 7.5077 5.88339C9.72835 5.88339 11.5396 7.73571 11.5396 9.99311ZM5.17506 9.4032C5.15189 9.40713 5.10169 9.41106 5.05148 9.42679C4.60349 9.55264 4.47218 10.0796 4.81204 10.4336C5.34499 10.9881 5.88953 11.5308 6.42635 12.0814C6.77393 12.4353 7.0713 12.4353 7.41502 12.0853C8.32258 11.1651 9.22629 10.2409 10.13 9.32061C10.1763 9.27341 10.2227 9.23015 10.2613 9.1751C10.5085 8.84475 10.3656 8.38461 9.97165 8.2627C9.7129 8.18011 9.51207 8.2863 9.33442 8.4672C8.56975 9.24588 7.80121 10.0246 7.0404 10.8072C6.94772 10.9016 6.89751 10.9134 6.80096 10.8111C6.42248 10.4139 6.03242 10.0246 5.65009 9.63129C5.5265 9.49758 5.38747 9.40713 5.17506 9.4032Z" fill="white"/>
</g>
</svg>
